<svg width="355" height="115" viewBox="0 0 355 115" fill="none" xmlns="http://www.w3.org/2000/svg">
<g clip-path="url(#clip0_1_87)">
<path d="M3.63609e-06 22.878V68.6886C-0.0011936 70.1882 0.293277 71.6732 0.866573 73.0588C1.43987 74.4445 2.28074 75.7035 3.34107 76.7638C4.4014 77.8241 5.6604 78.665 7.04602 79.2383C8.43164 79.8116 9.9167 80.1061 11.4162 80.1049V22.878H3.63609e-06Z" fill="white"/>
<path d="M80.2231 34.2851H68.8069V80.0776H80.2231V34.2851Z" fill="white"/>
<path d="M137.377 0H125.961V80.0776H137.377V0Z" fill="white"/>
<path d="M160.255 0H148.839V80.0776H160.255V0Z" fill="white"/>
<path d="M171.717 80.0776H205.902C208.926 80.08 211.827 78.8817 213.968 76.7461C216.108 74.6106 217.313 71.7124 217.318 68.6886H183.124C180.102 68.6886 177.203 69.8879 175.065 72.0233C172.926 74.1586 171.722 77.0554 171.717 80.0776Z" fill="white"/>
<path d="M217.582 45.6832H194.549C193.051 45.682 191.566 45.9762 190.181 46.5489C188.796 47.1216 187.538 47.9617 186.478 49.021C185.417 50.0804 184.576 51.3383 184.002 52.7229C183.429 54.1075 183.133 55.5915 183.133 57.0903V34.3307H171.726V45.6741C171.726 48.7003 172.928 51.6027 175.067 53.7434C177.206 55.8841 180.107 57.0879 183.133 57.0903H217.318V68.4701H228.725V57.0903C228.726 54.1101 227.561 51.248 225.478 49.1162C223.396 46.9844 220.562 45.7522 217.582 45.6832Z" fill="white"/>
<path d="M354.914 34.2851V22.878H308.939V34.2851H320.374V68.6886C320.373 70.1874 320.667 71.6717 321.24 73.0567C321.812 74.4418 322.652 75.7004 323.712 76.7606C324.771 77.8208 326.029 78.6619 327.414 79.2357C328.798 79.8095 330.282 80.1049 331.781 80.1049H354.914V68.6886H331.781V34.2851H354.914Z" fill="white"/>
<path d="M320.52 0.0273113V11.4618C320.522 14.4888 321.726 17.3912 323.866 19.5316C326.006 21.672 328.909 22.8756 331.936 22.878V0.0273113H320.52Z" fill="white"/>
<path d="M286.043 22.9508H251.858V34.358H286.043V45.7378H263.284C261.784 45.7354 260.299 46.0287 258.913 46.6009C257.527 47.1731 256.267 48.0129 255.206 49.0724C254.145 50.1319 253.303 51.3902 252.728 52.7754C252.154 54.1606 251.858 55.6454 251.858 57.1449H286.043C289.066 57.1449 291.966 55.9459 294.106 53.8109C296.246 51.6758 297.452 48.779 297.46 45.756V34.3489C297.455 31.3243 296.25 28.4252 294.109 26.2881C291.969 24.1511 289.068 22.9508 286.043 22.9508Z" fill="white"/>
<path d="M240.442 45.7742V68.5339H251.858V34.358C248.831 34.358 245.927 35.5607 243.786 37.7017C241.645 39.8427 240.442 42.7464 240.442 45.7742Z" fill="white"/>
<path d="M263.266 80.0776H297.46V68.6886H251.858C251.863 71.7108 253.067 74.6076 255.206 76.7429C257.345 78.8782 260.243 80.0776 263.266 80.0776Z" fill="white"/>
<path d="M182.851 34.094H228.935V22.6777H194.304C192.801 22.6729 191.313 22.9647 189.924 23.5363C188.534 24.1078 187.272 24.948 186.208 26.0086C185.144 27.0691 184.3 28.3293 183.724 29.7167C183.148 31.1042 182.851 32.5917 182.851 34.094Z" fill="white"/>
<path d="M45.8562 22.878V34.2851H45.9836V68.6886H22.8234C21.3246 68.6886 19.8405 68.984 18.456 69.5578C17.0714 70.1316 15.8135 70.9727 14.7541 72.0329C13.6947 73.0931 12.8547 74.3517 12.282 75.7367C11.7092 77.1218 11.4151 78.6061 11.4163 80.1049H34.6675C36.1671 80.1061 37.6521 79.8116 39.0377 79.2383C40.4234 78.665 41.6824 77.8241 42.7427 76.7638C43.803 75.7035 44.6439 74.4445 45.2172 73.0588C45.7905 71.6732 46.085 70.1882 46.0838 68.6886H57.3817V22.878H45.8562Z" fill="white"/>
<path d="M80.2141 34.2851H114.39V22.878H91.6304C88.6042 22.878 85.7018 24.0795 83.5611 26.2185C81.4204 28.3575 80.2165 31.2589 80.2141 34.2851Z" fill="white"/>
<path d="M97.9302 114.126H95.1991L97.0835 109.146L91.8853 96.1277H94.6164L98.4491 106.142L102.009 96.1277H104.558L97.9302 114.126Z" fill="white"/>
<path d="M104.949 102.728C104.949 98.8224 107.68 95.8819 111.422 95.8819C115.164 95.8819 117.895 98.8224 117.895 102.728C117.895 106.634 115.164 109.565 111.422 109.565C107.68 109.565 104.949 106.634 104.949 102.728ZM115.3 102.728C115.3 99.842 113.589 98.1214 111.422 98.1214C109.255 98.1214 107.562 99.842 107.562 102.728C107.562 105.614 109.255 107.353 111.422 107.353C113.589 107.353 115.3 105.614 115.3 102.728Z" fill="white"/>
<path d="M128.692 96.1277H131.205V109.319H128.865V107.225C128.472 107.947 127.888 108.547 127.176 108.96C126.465 109.373 125.654 109.582 124.832 109.565C122.174 109.565 120.28 107.999 120.28 104.612V96.1277H122.793V104.121C122.793 106.406 123.94 107.353 125.588 107.353C126.019 107.337 126.443 107.234 126.834 107.049C127.224 106.865 127.573 106.603 127.859 106.279C128.145 105.956 128.363 105.577 128.498 105.167C128.633 104.757 128.684 104.324 128.647 103.893L128.692 96.1277Z" fill="white"/>
<path d="M153.081 107.28C152.66 108.018 152.039 108.624 151.291 109.027C150.543 109.431 149.697 109.617 148.848 109.565C146.117 109.565 144.296 107.999 144.296 105.587C144.296 103.001 146.363 101.654 150.296 101.654C151.12 101.651 151.945 101.702 152.763 101.808V100.834C152.763 98.9408 151.743 97.8756 150.032 97.8756C149.634 97.8427 149.233 97.8952 148.857 98.0295C148.481 98.1638 148.138 98.3768 147.851 98.6544C147.564 98.9319 147.34 99.2675 147.193 99.6387C147.046 100.01 146.98 100.408 147 100.807H144.706C144.712 100.128 144.856 99.4564 145.131 98.835C145.406 98.2136 145.805 97.655 146.304 97.1936C146.803 96.7322 147.391 96.3778 148.032 96.1522C148.673 95.9267 149.354 95.8347 150.032 95.8819C153.291 95.8819 155.184 97.7027 155.184 100.862V109.319H153.081V107.28ZM149.349 107.781C149.801 107.819 150.257 107.76 150.685 107.607C151.113 107.454 151.503 107.211 151.828 106.894C152.154 106.577 152.407 106.194 152.572 105.77C152.736 105.347 152.807 104.893 152.781 104.44V103.374C152.015 103.27 151.242 103.218 150.469 103.22C147.947 103.22 146.709 103.966 146.709 105.514C146.709 106.925 147.728 107.781 149.349 107.781Z" fill="white"/>
<path d="M161.002 109.319H158.489V96.1277H160.829V98.9134C161.324 98.0025 162.059 97.2449 162.955 96.7232C163.851 96.2015 164.872 95.9356 165.909 95.9547V98.5675C163.068 98.4218 161.002 99.66 161.002 102.573V109.319Z" fill="white"/>
<path d="M166.938 102.646C166.938 98.7405 169.605 95.8819 173.237 95.8819C177.17 95.8819 179.783 99.0682 179.328 103.347H169.505C169.696 106.078 171.043 107.599 173.256 107.599C174.082 107.651 174.9 107.404 175.559 106.902C176.217 106.4 176.673 105.678 176.842 104.867H179.328C179.065 106.247 178.31 107.484 177.203 108.348C176.096 109.213 174.712 109.645 173.31 109.565C169.505 109.565 166.938 106.806 166.938 102.646ZM169.523 101.681H176.67C176.542 99.2412 175.222 97.7755 173.183 97.7755C171.143 97.7755 169.796 99.2139 169.523 101.681Z" fill="white"/>
<path d="M200.385 107.28C199.963 108.018 199.343 108.623 198.595 109.027C197.847 109.431 197 109.617 196.152 109.565C193.421 109.565 191.6 107.999 191.6 105.587C191.6 103.001 193.657 101.654 197.59 101.654C198.415 101.65 199.239 101.702 200.057 101.808V100.834C200.057 98.9408 199.038 97.8756 197.326 97.8756C196.928 97.8413 196.526 97.8928 196.149 98.0265C195.772 98.1601 195.428 98.373 195.14 98.6506C194.852 98.9283 194.627 99.2644 194.479 99.6364C194.332 100.008 194.266 100.407 194.285 100.807H192C192.005 100.127 192.149 99.4554 192.423 98.8333C192.698 98.2113 193.097 97.6521 193.596 97.1905C194.095 96.7288 194.684 96.3745 195.325 96.1494C195.967 95.9243 196.648 95.8333 197.326 95.8819C200.585 95.8819 202.47 97.7026 202.47 100.862V109.319H200.385V107.28ZM196.652 107.781C197.105 107.819 197.561 107.76 197.989 107.607C198.416 107.454 198.806 107.211 199.132 106.894C199.457 106.577 199.711 106.194 199.875 105.77C200.04 105.347 200.111 104.893 200.085 104.439V103.374C199.318 103.27 198.546 103.218 197.772 103.22C195.26 103.22 194.012 103.966 194.012 105.514C194.012 106.925 195.032 107.781 196.652 107.781Z" fill="white"/>
<path d="M205.829 109.319V91.4483H208.342V109.319H205.829Z" fill="white"/>
<path d="M211.856 109.319V91.4483H214.396V109.319H211.856Z" fill="white"/>
<path d="M233.204 109.565C229.718 109.565 227.66 107.853 227.405 105.013H229.818C229.918 106.661 231.238 107.68 233.259 107.68C235.025 107.68 236.19 107.052 236.19 105.814C236.19 104.576 235.517 104.239 233.878 103.921L231.739 103.52C229.299 103.047 227.933 101.808 227.933 99.8147C227.933 97.5024 229.945 95.8819 233.004 95.8819C236.063 95.8819 238.312 97.5752 238.53 100.288H236.118C235.972 98.695 234.798 97.7755 233.031 97.7755C231.438 97.7755 230.373 98.44 230.373 99.5962C230.373 100.752 231.038 101.162 232.631 101.417L234.87 101.845C237.483 102.318 238.73 103.456 238.73 105.35C238.73 107.972 236.719 109.565 233.204 109.565Z" fill="white"/>
<path d="M240.524 102.646C240.524 98.7405 243.182 95.8819 246.815 95.8819C250.748 95.8819 253.36 99.0682 252.914 103.347H243.082C243.282 106.078 244.63 107.599 246.842 107.599C247.668 107.649 248.485 107.401 249.143 106.9C249.802 106.398 250.258 105.677 250.429 104.867H252.951C252.686 106.246 251.931 107.482 250.824 108.346C249.717 109.21 248.335 109.643 246.933 109.565C243.082 109.565 240.524 106.806 240.524 102.646ZM243.109 101.681H250.22C250.092 99.2412 248.772 97.7755 246.733 97.7755C244.694 97.7755 243.383 99.2139 243.109 101.681Z" fill="white"/>
<path d="M262.965 109.092C262.265 109.421 261.499 109.583 260.726 109.565C258.286 109.565 256.601 108.254 256.601 105.341V98.267H253.688V96.1276H256.592V92.2221H259.105V96.1276H263.083V98.267H259.105V104.767C259.105 106.588 260.015 107.225 261.317 107.225C261.883 107.258 262.448 107.155 262.965 106.925V109.092Z" fill="white"/>
<path d="M68.6704 102.983H0C0 102.324 0.261849 101.692 0.727943 101.225C1.19404 100.759 1.8262 100.498 2.48535 100.498H71.1558C71.1558 101.157 70.8939 101.789 70.4278 102.255C69.9617 102.721 69.3296 102.983 68.6704 102.983Z" fill="white"/>
<path d="M352.447 102.983H283.776C283.779 102.323 284.043 101.691 284.51 101.225C284.978 100.759 285.611 100.498 286.271 100.498H354.914C354.914 101.154 354.655 101.783 354.192 102.249C353.73 102.714 353.103 102.978 352.447 102.983Z" fill="white"/>
</g>
<defs>
<clipPath id="clip0_1_87">
<rect width="354.932" height="114.117" fill="white"/>
</clipPath>
</defs>
</svg>
